<svg width="48" height="48" viewBox="0 0 48 48" fill="none" xmlns="http://www.w3.org/2000/svg">
<path d="M24 4.875C20.2174 4.875 16.5198 5.99666 13.3747 8.09814C10.2296 10.1996 7.77834 13.1865 6.33081 16.6812C4.88329 20.1758 4.50455 24.0212 5.24249 27.7311C5.98043 31.441 7.80191 34.8487 10.4766 37.5234C13.1513 40.1981 16.559 42.0196 20.2689 42.7575C23.9788 43.4955 27.8242 43.1167 31.3188 41.6692C34.8135 40.2217 37.8004 37.7704 39.9019 34.6253C42.0033 31.4802 43.125 27.7826 43.125 24C43.1191 18.9296 41.1022 14.0685 37.5168 10.4832C33.9315 6.89782 29.0704 4.88095 24 4.875ZM13.395 37.125C14.4952 35.2955 16.0501 33.7817 17.9083 32.7308C19.7666 31.6799 21.8652 31.1277 24 31.1277C26.1349 31.1277 28.2334 31.6799 30.0917 32.7308C31.95 33.7817 33.5048 35.2955 34.605 37.125C31.6057 39.5571 27.8615 40.8844 24 40.8844C20.1385 40.8844 16.3943 39.5571 13.395 37.125ZM17.625 22.5C17.625 21.2391 17.9989 20.0066 18.6994 18.9582C19.3999 17.9099 20.3955 17.0928 21.5604 16.6103C22.7253 16.1278 24.0071 16.0015 25.2437 16.2475C26.4803 16.4935 27.6163 17.1006 28.5078 17.9922C29.3994 18.8838 30.0065 20.0197 30.2525 21.2563C30.4985 22.4929 30.3722 23.7747 29.8897 24.9396C29.4072 26.1045 28.5901 27.1001 27.5418 27.8006C26.4934 28.5011 25.2609 28.875 24 28.875C22.3093 28.875 20.6877 28.2034 19.4922 27.0078C18.2967 25.8123 17.625 24.1908 17.625 22.5ZM36.2831 35.5575C34.5155 32.809 31.8734 30.7363 28.7831 29.6737C30.3241 28.6474 31.4938 27.1524 32.1195 25.4099C32.7451 23.6674 32.7935 21.7698 32.2573 19.9977C31.7212 18.2255 30.629 16.673 29.1423 15.5695C27.6556 14.4661 25.8533 13.8703 24.0019 13.8703C22.1504 13.8703 20.3481 14.4661 18.8614 15.5695C17.3747 16.673 16.2826 18.2255 15.7464 19.9977C15.2103 21.7698 15.2586 23.6674 15.8843 25.4099C16.5099 27.1524 17.6797 28.6474 19.2206 29.6737C16.1304 30.7363 13.4883 32.809 11.7206 35.5575C9.46094 33.1595 7.95268 30.1525 7.38196 26.9074C6.81124 23.6623 7.20301 20.3211 8.50896 17.296C9.8149 14.2709 11.9779 11.6944 14.731 9.88418C17.4841 8.074 20.707 7.10941 24.0019 7.10941C27.2968 7.10941 30.5196 8.074 33.2728 9.88418C36.0259 11.6944 38.1889 14.2709 39.4948 17.296C40.8008 20.3211 41.1925 23.6623 40.6218 26.9074C40.0511 30.1525 38.5428 33.1595 36.2831 35.5575Z" fill="#C4C4C4"/>
</svg>
